<svg width="64px" height="64px" viewBox="-2.4 -2.4 28.80 28.80" fill="none"
    xmlns="http://www.w3.org/2000/svg" transform="matrix(1, 0, 0, 1, 0, 0)rotate(0)">
    <g id="SVGRepo_bgCarrier" stroke-width="0"></g>
    <g id="SVGRepo_tracerCarrier" stroke-linecap="round" stroke-linejoin="round" stroke="#CCCCCC" stroke-width="0.288"></g>
    <g id="SVGRepo_iconCarrier">
        <path d="M8 11V11.01M16 11V11.01M8 8H16M8 8C5 8 4 11.8899 4 13.5C4 19.5259 5.60338 20.5 12 20.5C18.3966 20.5 20 19.5259 20 13.5C20 11.8899 19 8 16 8M8 8V7C8 4.79086 9.79086 3 12 3C14.2091 3 16 4.79086 16 7L16 8" stroke="#000000" stroke-width="1.224" stroke-linecap="round" stroke-linejoin="round"></path>
    </g>
</svg>